<svg width="146" height="211" viewBox="0 0 146 211" fill="none" xmlns="http://www.w3.org/2000/svg">
<path d="M36.7088 137.78C33.2111 135.928 30.8109 133.27 29.4246 129.717C28.0189 126.114 27.6082 121.462 28.3649 115.603C29.8831 103.848 36.0204 87.8015 47.0408 66.9833C58.0233 46.2368 69.3462 31.4221 79.7257 22.838C90.173 14.198 99.1178 12.2576 105.838 15.8148C112.631 19.4107 116.078 27.0855 114.924 39.5637C113.769 52.0551 108.001 68.8403 97.0056 89.612C86.0434 110.32 74.3732 124.357 63.6653 132.184C52.9201 140.038 43.5456 141.399 36.7088 137.78Z" stroke="#FFFCFC" stroke-width="4"/>
<path d="M2.37057 75.0541C2.31416 71.0969 3.49221 67.7149 5.94232 64.7921C8.42708 61.8282 12.3101 59.2331 17.8121 57.082C28.851 52.7662 45.8729 50.4398 69.4258 50.1038C92.8974 49.7689 111.33 52.5822 123.845 57.5616C136.442 62.5735 142.441 69.4862 142.55 77.0887C142.659 84.774 137.584 91.4847 126.086 96.4672C114.575 101.455 97.0836 104.461 73.5834 104.796C50.1551 105.13 32.2378 101.639 20.2289 96.0075C8.17834 90.3568 2.48093 82.7889 2.37057 75.0541Z" stroke="#FFFCFC" stroke-width="4"/>
<path d="M105.054 139.563C101.642 141.568 98.1197 142.215 94.368 141.529C90.5634 140.834 86.3884 138.74 81.7994 135.02C72.5922 127.556 62.158 113.908 50.2266 93.5976C38.3364 73.3577 31.6733 55.9427 29.8175 42.6018C27.9497 29.174 30.9948 20.5425 37.5505 16.6912C44.1776 12.798 52.5195 13.8937 62.5333 21.4277C72.5577 28.9698 83.8149 42.6911 95.7196 62.9557C107.588 83.1582 113.406 100.46 114.445 113.683C115.488 126.952 111.724 135.645 105.054 139.563Z" stroke="#FFFCFC" stroke-width="4"/>
<path d="M12.8526 182.048V157.548H23.4576C25.651 157.548 27.541 157.909 29.1276 158.633C30.7143 159.333 31.9393 160.348 32.8026 161.678C33.666 163.008 34.0976 164.594 34.0976 166.438C34.0976 168.258 33.666 169.833 32.8026 171.163C31.9393 172.469 30.7143 173.473 29.1276 174.173C27.541 174.873 25.651 175.223 23.4576 175.223H16.0026L18.5226 172.738V182.048H12.8526ZM28.4276 182.048L22.3026 173.158H28.3576L34.5526 182.048H28.4276ZM18.5226 173.368L16.0026 170.708H23.1426C24.8926 170.708 26.1993 170.334 27.0626 169.588C27.926 168.818 28.3576 167.768 28.3576 166.438C28.3576 165.084 27.926 164.034 27.0626 163.288C26.1993 162.541 24.8926 162.168 23.1426 162.168H16.0026L18.5226 159.473V173.368ZM43.8049 167.418H55.5999V171.828H43.8049V167.418ZM44.2249 177.498H57.5599V182.048H38.5899V157.548H57.1049V162.098H44.2249V177.498ZM58.8514 182.048L69.7714 157.548H75.3714L86.3264 182.048H80.3764L71.4164 160.418H73.6564L64.6614 182.048H58.8514ZM64.3114 176.798L65.8164 172.493H78.4164L79.9564 176.798H64.3114ZM100.251 182.468C98.3615 182.468 96.5998 182.164 94.9665 181.558C93.3565 180.928 91.9565 180.041 90.7665 178.898C89.5765 177.754 88.6431 176.413 87.9665 174.873C87.3131 173.333 86.9865 171.641 86.9865 169.798C86.9865 167.954 87.3131 166.263 87.9665 164.723C88.6431 163.183 89.5765 161.841 90.7665 160.698C91.9798 159.554 93.3915 158.679 95.0015 158.073C96.6115 157.443 98.3731 157.128 100.286 157.128C102.41 157.128 104.323 157.501 106.026 158.248C107.753 158.971 109.2 160.044 110.366 161.468L106.726 164.828C105.886 163.871 104.953 163.159 103.926 162.693C102.9 162.203 101.78 161.958 100.566 161.958C99.4231 161.958 98.3731 162.144 97.4165 162.518C96.4598 162.891 95.6315 163.428 94.9315 164.128C94.2315 164.828 93.6831 165.656 93.2865 166.613C92.9131 167.569 92.7265 168.631 92.7265 169.798C92.7265 170.964 92.9131 172.026 93.2865 172.983C93.6831 173.939 94.2315 174.768 94.9315 175.468C95.6315 176.168 96.4598 176.704 97.4165 177.078C98.3731 177.451 99.4231 177.638 100.566 177.638C101.78 177.638 102.9 177.404 103.926 176.938C104.953 176.448 105.886 175.713 106.726 174.733L110.366 178.093C109.2 179.516 107.753 180.601 106.026 181.348C104.323 182.094 102.398 182.468 100.251 182.468ZM119.031 182.048V162.168H111.191V157.548H132.541V162.168H124.701V182.048H119.031Z" fill="#FFFCFC"/>
<path d="M84.0868 85.7103C84.2136 85.3895 84.5409 85.1736 84.9022 85.2571L85.5487 85.4144C87.0245 85.7918 88.2714 86.2415 89.1952 86.7571L89.576 86.9857C89.9427 87.2221 90.2624 87.4832 90.5126 87.7728L90.6346 87.9232C90.9071 88.2848 91.0956 88.7188 91.0956 89.2151C91.0955 89.6913 90.9217 90.1106 90.6669 90.4632L90.5526 90.6107C90.3187 90.8928 90.0197 91.1468 89.6776 91.3773L89.3212 91.5999C88.4599 92.1026 87.2984 92.5438 85.9227 92.9173L85.3202 93.0726C82.0287 93.8851 77.5173 94.3811 72.5594 94.3812C67.9112 94.3812 63.6555 93.945 60.4296 93.221L59.7987 93.0726C58.3636 92.7183 57.1299 92.2966 56.1844 91.8118L55.7968 91.5999C55.3667 91.3489 54.9858 91.0678 54.6884 90.7493L54.5653 90.6107C54.2495 90.2297 54.0234 89.7594 54.0233 89.2151C54.0233 88.648 54.2689 88.1623 54.6053 87.7728L54.7362 87.6302C55.0543 87.3035 55.4623 87.0147 55.9237 86.7571L56.3387 86.5403C57.3528 86.0437 58.6766 85.6138 60.2157 85.2571L60.2928 85.2435C60.6739 85.1987 61.0023 85.4823 61.0731 85.8538L61.0878 86.0013C61.0894 86.3204 60.9037 86.6279 60.5946 86.7357L60.5214 86.7571C59.0302 87.1026 57.8215 87.5045 56.9452 87.9329L56.5897 88.1175C56.255 88.3044 56.0026 88.4851 55.8212 88.6517L55.663 88.8138C55.4865 89.0181 55.4608 89.1494 55.4608 89.2151C55.4609 89.2788 55.4845 89.4015 55.6425 89.5921L55.786 89.7454C55.9504 89.9027 56.1804 90.0741 56.4872 90.2532L56.8143 90.4319C57.6204 90.8444 58.737 91.2353 60.1229 91.5775L60.7294 91.72C63.8316 92.4159 67.9825 92.846 72.5594 92.846C77.4414 92.846 81.8391 92.3568 84.996 91.5775L85.5731 91.428C86.8814 91.0725 87.9143 90.6714 88.6307 90.2532L88.913 90.0775C89.1702 89.9038 89.3535 89.7392 89.4755 89.5921L89.5712 89.4622C89.6445 89.3441 89.6571 89.2629 89.6571 89.2151C89.6571 89.1658 89.6429 89.0796 89.5614 88.9534L89.4559 88.8138C89.3206 88.6571 89.1173 88.484 88.8358 88.3021L88.5282 88.1175C87.7479 87.682 86.6279 87.2694 85.2186 86.9085L84.5975 86.7571C84.1943 86.6637 83.9713 86.2453 84.0458 85.8538L84.0868 85.7103Z" fill="#FFFCFC" stroke="#FFFCFC" stroke-width="0.5" stroke-linecap="round" stroke-linejoin="round"/>
<path d="M88.5011 68.0073C92.2868 68.0075 95.3144 71.3863 95.3146 75.5014C95.3146 79.6167 92.287 82.9963 88.5011 82.9965C88.0928 82.9965 87.6918 82.9565 87.3019 82.8803L86.9152 82.7924C86.6402 82.7202 86.4038 82.5461 86.2414 82.309L86.1769 82.2036C86.0165 81.9134 85.9684 81.5679 86.0412 81.2416L86.134 80.7875C86.2189 80.3289 86.2807 79.8575 86.3205 79.3784L86.339 79.2407C86.3978 78.924 86.5653 78.6365 86.8176 78.4438L86.9299 78.3676C87.1996 78.207 87.5208 78.1642 87.8244 78.2563L87.9875 78.2993C88.1526 78.3366 88.3244 78.3569 88.5011 78.3569C89.894 78.3567 91.0636 77.1017 91.0636 75.5014C91.0634 73.9013 89.8939 72.6471 88.5011 72.6469C88.3355 72.6469 88.1742 72.6648 88.0187 72.6977L87.8654 72.7348C87.5464 72.8254 87.2117 72.7686 86.9386 72.5864L86.8263 72.5004C86.538 72.2537 86.3752 71.8805 86.3752 71.4926V69.3784C86.3752 68.77 86.7757 68.2204 87.3625 68.1118L87.6427 68.0659C87.9242 68.0269 88.211 68.0073 88.5011 68.0073ZM88.5011 69.5424C88.2679 69.5424 88.0379 69.5584 87.8127 69.5903V71.1782C88.0364 71.1356 88.2665 71.1118 88.5011 71.1118C90.7331 71.1119 92.5019 73.1011 92.5021 75.5014C92.5021 77.9019 90.7333 79.8918 88.5011 79.892L88.4279 79.8911C88.1871 79.8863 87.9516 79.8565 87.7228 79.8071C87.7149 79.8855 87.7094 79.9642 87.7004 80.0424L87.631 80.5659C87.5914 80.8315 87.5439 81.095 87.4904 81.3559C87.7043 81.401 87.9226 81.4326 88.1447 81.4487L88.5011 81.4614C91.4477 81.4612 93.8771 78.8165 93.8771 75.5014C93.8769 72.1865 91.4476 69.5426 88.5011 69.5424Z" fill="#FFFCFC" stroke="#FFFCFC" stroke-width="0.5" stroke-linecap="round" stroke-linejoin="round"/>
<path d="M87.0945 64.3849C87.514 64.3851 87.8132 64.7525 87.8132 65.1525V78.0939C87.8132 81.8072 86.6842 85.7551 83.5339 87.801L83.2234 87.9924C80.7485 89.4413 77.2148 90.759 72.5593 90.759C68.1949 90.759 64.8163 89.6014 62.3718 88.2629L61.8952 87.9924C58.5082 86.0093 57.3054 81.9267 57.3054 78.0939V65.1525C57.3054 64.7525 57.6046 64.385 58.0242 64.3849C58.4438 64.3849 58.7429 64.7524 58.7429 65.1525V78.0939C58.7429 81.6709 59.8656 85.053 62.5876 86.6467L63.0281 86.8967C65.2892 88.135 68.4445 89.2238 72.5593 89.2238C76.9487 89.2238 80.246 87.9844 82.531 86.6467L82.782 86.4924C85.3224 84.8417 86.3757 81.5591 86.3757 78.0939V65.1525C86.3757 64.7524 86.6748 64.3849 87.0945 64.3849Z" fill="#FFFCFC" stroke="#FFFCFC" stroke-width="0.5" stroke-linecap="round" stroke-linejoin="round"/>
<path d="M87.246 75.7986C87.3056 75.792 87.3666 75.8073 87.4169 75.8425C87.4837 75.8893 87.5233 75.966 87.5233 76.0476V78.2595C87.5233 81.4211 86.6842 84.6418 84.4882 86.4831L84.2714 86.657C81.9409 88.4433 78.3075 90.2976 73.2733 90.2976C68.5537 90.2976 65.0653 88.6676 62.7274 86.9919L62.2753 86.657C59.9174 84.8496 59.0233 81.5231 59.0233 78.2595V76.0476C59.0233 75.966 59.0629 75.8893 59.1298 75.8425C59.1966 75.7957 59.2826 75.7843 59.3593 75.8122C60.4109 76.1954 62.2879 76.5317 64.7167 76.7702C67.1387 77.0081 70.0891 77.1472 73.2733 77.1472C76.4575 77.1472 79.408 77.0081 81.83 76.7702C84.2587 76.5317 86.1357 76.1954 87.1874 75.8122L87.246 75.7986Z" fill="#FFFCFC" stroke="#FFFCFC" stroke-width="0.5" stroke-linecap="round" stroke-linejoin="round"/>
<path d="M85.6666 76.1632C85.7253 76.1582 85.7847 76.1739 85.8336 76.2091C85.8988 76.2561 85.9371 76.3318 85.9371 76.4122V78.3126C85.9371 81.0391 85.1468 83.8209 83.0777 85.4102L82.8736 85.5606C82.118 86.0913 81.2161 86.6282 80.1647 87.1046C80.0873 87.1396 79.9968 87.133 79.9254 87.087C79.8542 87.0409 79.8111 86.9618 79.8111 86.877V77.2931C79.8111 77.1629 79.911 77.0547 80.0406 77.044C82.5792 76.8376 84.5435 76.5302 85.608 76.1749L85.6666 76.1632Z" fill="#FFFCFC" stroke="#FFFCFC" stroke-width="0.5" stroke-linecap="round" stroke-linejoin="round"/>
<path d="M59.5101 76.1749C59.4338 76.1495 59.3497 76.1621 59.2845 76.2091C59.2193 76.2561 59.181 76.3318 59.181 76.4122V78.3126C59.181 81.039 59.9715 83.8209 62.0404 85.4102L62.2445 85.5606C62.5357 85.7652 62.8491 85.9703 63.1839 86.1729L63.5267 86.3751C63.6039 86.4192 63.6987 86.4186 63.7757 86.3741C63.8527 86.3295 63.9005 86.2473 63.9007 86.1583V77.1622C63.9007 77.0344 63.8042 76.9277 63.6771 76.9142L62.9974 76.837C61.4595 76.6523 60.2599 76.4252 59.5101 76.1749Z" fill="#FFFCFC" stroke="#FFFCFC" stroke-width="0.5" stroke-linecap="round" stroke-linejoin="round"/>
<path d="M72.5593 61.7976C76.4752 61.7976 80.0411 62.0012 82.6462 62.3367L83.5788 62.4695C84.4723 62.6087 85.2424 62.7692 85.8425 62.9519L86.1335 63.0466C86.4227 63.1479 86.7005 63.2688 86.9372 63.4177L87.0613 63.5017C87.1903 63.5944 87.331 63.7156 87.4558 63.8738L87.5212 63.9626C87.6722 64.1821 87.8131 64.4967 87.8132 64.8933C87.8132 65.2901 87.6723 65.6054 87.5212 65.8249L87.4558 65.9128C87.3308 66.0713 87.1905 66.1931 87.0613 66.2859L86.9372 66.3699C86.7006 66.5187 86.4225 66.6387 86.1335 66.74L85.8425 66.8357C85.2423 67.0184 84.4723 67.1788 83.5788 67.3181L82.6462 67.4499C80.0411 67.7854 76.4752 67.99 72.5593 67.99C69.1327 67.99 65.9742 67.8338 63.4929 67.5701L62.4724 67.4499C61.3399 67.3041 60.3551 67.1301 59.5906 66.9255L59.2761 66.8357C58.9829 66.7464 58.691 66.6406 58.4304 66.5095L58.1814 66.3699C58.063 66.2954 57.9242 66.194 57.7917 66.0593L57.6618 65.9128C57.4889 65.6934 57.3054 65.3465 57.3054 64.8933C57.3055 64.44 57.4889 64.0931 57.6618 63.8738L57.7917 63.7283C57.9242 63.5935 58.063 63.4922 58.1814 63.4177L58.4304 63.2781C58.691 63.147 58.9829 63.0412 59.2761 62.9519L59.5906 62.862C60.3551 62.6575 61.3398 62.4825 62.4724 62.3367L63.4929 62.2175C65.9742 61.9537 69.1327 61.7976 72.5593 61.7976ZM72.5593 63.3327C68.6824 63.3327 65.1771 63.5351 62.6452 63.8611C61.3777 64.0243 60.3636 64.2169 59.6716 64.4275C59.3238 64.5334 59.0715 64.6395 58.9118 64.74C58.7371 64.8499 58.7429 64.9069 58.7429 64.8933C58.7428 64.8813 58.7389 64.9387 58.9118 65.0476C59.0715 65.1481 59.3239 65.2532 59.6716 65.3591C60.3636 65.5697 61.3776 65.7633 62.6452 65.9265C65.1771 66.2525 68.6825 66.4548 72.5593 66.4548C76.4362 66.4548 79.9415 66.2525 82.4734 65.9265C83.7411 65.7633 84.755 65.5698 85.447 65.3591C85.7948 65.2532 86.0471 65.1481 86.2068 65.0476C86.3797 64.9388 86.3758 64.8813 86.3757 64.8933C86.3757 64.9069 86.3814 64.8499 86.2068 64.74C86.0471 64.6395 85.7948 64.5334 85.447 64.4275C84.755 64.2168 83.741 64.0243 82.4734 63.8611C79.9415 63.5351 76.4362 63.3328 72.5593 63.3327Z" fill="#FFFCFC" stroke="#FFFCFC" stroke-width="0.5" stroke-linecap="round" stroke-linejoin="round"/>
<path d="M72.5588 74.7344C76.1894 74.7344 79.4803 74.8792 81.8664 75.1143C83.0578 75.2317 84.032 75.3729 84.7121 75.5313C85.0502 75.61 85.3298 75.6959 85.5295 75.792C85.6286 75.8398 85.7222 75.897 85.7942 75.9668C85.8662 76.0369 85.9377 76.1416 85.9377 76.2784C85.9376 76.4151 85.8663 76.5199 85.7942 76.5899C85.7222 76.6597 85.6286 76.716 85.5295 76.7637C85.3298 76.8599 85.0502 76.9467 84.7121 77.0254C84.032 77.1838 83.0577 77.324 81.8664 77.4414C79.4803 77.6766 76.1894 77.8213 72.5588 77.8213C68.9282 77.8213 65.6373 77.6766 63.2512 77.4414C62.0598 77.324 61.0856 77.1839 60.4055 77.0254C60.0676 76.9467 59.7887 76.8598 59.5891 76.7637C59.49 76.716 59.3964 76.6597 59.3244 76.5899C59.2704 76.5374 59.2171 76.4653 59.1936 76.375L59.1809 76.2784L59.1936 76.1817C59.217 76.0913 59.2704 76.0194 59.3244 75.9668C59.3964 75.897 59.4899 75.8398 59.5891 75.792C59.7887 75.6959 60.0676 75.61 60.4055 75.5313C61.0856 75.3728 62.0597 75.2317 63.2512 75.1143C65.6373 74.8792 68.9282 74.7344 72.5588 74.7344Z" fill="#FFFCFC" stroke="#FFFCFC" stroke-width="0.5" stroke-linecap="round" stroke-linejoin="round"/>
<path d="M79.8477 81.9145C80.0636 81.9145 80.2803 82.116 80.2803 82.4174C80.2802 82.7187 80.0636 82.9204 79.8477 82.9204C79.6319 82.9201 79.4162 82.7185 79.416 82.4174C79.416 82.1162 79.6319 81.9147 79.8477 81.9145Z" fill="#FFFCFC" stroke="#FFFCFC" stroke-width="0.5"/>
<path d="M77.8017 80.4091C78.0177 80.4091 78.2343 80.6106 78.2343 80.912C78.2342 81.2133 78.0176 81.415 77.8017 81.415C77.5859 81.4148 77.3702 81.2131 77.3701 80.912C77.3701 80.6108 77.5859 80.4093 77.8017 80.4091Z" fill="#FFFCFC" stroke="#FFFCFC" stroke-width="0.5"/>
<path d="M76.523 78.3392C76.7389 78.3392 76.9556 78.5408 76.9556 78.8422C76.9555 79.1434 76.7389 79.3451 76.523 79.3451C76.3072 79.3449 76.0914 79.1433 76.0913 78.8422C76.0913 78.5409 76.3071 78.3395 76.523 78.3392Z" fill="#FFFCFC" stroke="#FFFCFC" stroke-width="0.5"/>
<path d="M74.9039 81.0207C75.0256 81.0208 75.1655 81.1378 75.1656 81.3351C75.1656 81.5325 75.0256 81.6495 74.9039 81.6496C74.7821 81.6496 74.6421 81.5326 74.6421 81.3351C74.6422 81.1377 74.7821 81.0207 74.9039 81.0207Z" fill="#FFFCFC" stroke="#FFFCFC" stroke-width="0.5"/>
<path d="M74.0087 78.8567C74.1304 78.8568 74.2704 78.9738 74.2704 79.1712C74.2704 79.3685 74.1304 79.4855 74.0087 79.4856C73.8869 79.4856 73.747 79.3686 73.747 79.1712C73.747 78.9737 73.8869 78.8567 74.0087 78.8567Z" fill="#FFFCFC" stroke="#FFFCFC" stroke-width="0.5"/>
<path d="M72.6021 81.9615C72.7238 81.9617 72.8638 82.0787 72.8638 82.276C72.8638 82.4733 72.7238 82.5903 72.6021 82.5904C72.4803 82.5904 72.3404 82.4735 72.3404 82.276C72.3404 82.0785 72.4803 81.9615 72.6021 81.9615Z" fill="#FFFCFC" stroke="#FFFCFC" stroke-width="0.5"/>
<path d="M72.6021 85.5839C72.7238 85.584 72.8638 85.701 72.8638 85.8983C72.8638 86.0957 72.7238 86.2126 72.6021 86.2128C72.4803 86.2128 72.3404 86.0958 72.3404 85.8983C72.3404 85.7009 72.4803 85.5839 72.6021 85.5839Z" fill="#FFFCFC" stroke="#FFFCFC" stroke-width="0.5"/>
<path d="M75.0737 85.6779C75.2897 85.6779 75.5063 85.8795 75.5063 86.1809C75.5062 86.4821 75.2896 86.6838 75.0737 86.6838C74.858 86.6836 74.6422 86.482 74.6421 86.1809C74.6421 85.8796 74.8579 85.6782 75.0737 85.6779Z" fill="#FFFCFC" stroke="#FFFCFC" stroke-width="0.5"/>
<path d="M74.0087 83.2787C74.1304 83.2789 74.2704 83.3959 74.2704 83.5932C74.2704 83.7906 74.1304 83.9075 74.0087 83.9077C73.8869 83.9077 73.747 83.7907 73.747 83.5932C73.747 83.3958 73.8869 83.2787 74.0087 83.2787Z" fill="#FFFCFC" stroke="#FFFCFC" stroke-width="0.5"/>
<path d="M76.9496 83.0435C77.2596 83.0435 77.5519 83.3289 77.5521 83.7339C77.5521 84.1392 77.2597 84.4253 76.9496 84.4254C76.6395 84.4254 76.347 84.1393 76.347 83.7339C76.3473 83.3289 76.6396 83.0435 76.9496 83.0435Z" fill="#FFFCFC" stroke="#FFFCFC" stroke-width="0.5"/>
<path d="M79.976 77.8218C80.2859 77.8218 80.5783 78.1071 80.5785 78.5122C80.5785 78.9175 80.2861 79.2036 79.976 79.2036C79.6658 79.2036 79.3734 78.9175 79.3734 78.5122C79.3736 78.1071 79.6659 77.8218 79.976 77.8218Z" fill="#FFFCFC" stroke="#FFFCFC" stroke-width="0.5"/>
<path d="M79.1657 84.5489C79.3816 84.5489 79.5983 84.7504 79.5983 85.0518C79.5982 85.3531 79.3816 85.5548 79.1657 85.5548C78.9499 85.5545 78.7342 85.3529 78.734 85.0518C78.734 84.7506 78.9498 84.5491 79.1657 84.5489Z" fill="#FFFCFC" stroke="#FFFCFC" stroke-width="0.5"/>
<path d="M36.8169 207.288C35.7369 207.288 34.7302 207.114 33.7969 206.768C32.8769 206.408 32.0769 205.901 31.3969 205.248C30.7169 204.594 30.1836 203.828 29.7969 202.948C29.4236 202.068 29.2369 201.101 29.2369 200.048C29.2369 198.994 29.4236 198.028 29.7969 197.148C30.1836 196.268 30.7169 195.501 31.3969 194.848C32.0902 194.194 32.8969 193.694 33.8169 193.348C34.7369 192.988 35.7436 192.808 36.8369 192.808C38.0502 192.808 39.1436 193.021 40.1169 193.448C41.1036 193.861 41.9302 194.474 42.5969 195.288L40.5169 197.208C40.0369 196.661 39.5036 196.254 38.9169 195.988C38.3302 195.708 37.6902 195.568 36.9969 195.568C36.3436 195.568 35.7436 195.674 35.1969 195.888C34.6502 196.101 34.1769 196.408 33.7769 196.808C33.3769 197.208 33.0636 197.681 32.8369 198.228C32.6236 198.774 32.5169 199.381 32.5169 200.048C32.5169 200.714 32.6236 201.321 32.8369 201.868C33.0636 202.414 33.3769 202.888 33.7769 203.288C34.1769 203.688 34.6502 203.994 35.1969 204.208C35.7436 204.421 36.3436 204.528 36.9969 204.528C37.6902 204.528 38.3302 204.394 38.9169 204.128C39.5036 203.848 40.0369 203.428 40.5169 202.868L42.5969 204.788C41.9302 205.601 41.1036 206.221 40.1169 206.648C39.1436 207.074 38.0436 207.288 36.8169 207.288ZM51.2919 207.288C50.1852 207.288 49.1586 207.108 48.2119 206.748C47.2786 206.388 46.4652 205.881 45.7719 205.228C45.0919 204.574 44.5586 203.808 44.1719 202.928C43.7986 202.048 43.6119 201.088 43.6119 200.048C43.6119 199.008 43.7986 198.048 44.1719 197.168C44.5586 196.288 45.0986 195.521 45.7919 194.868C46.4852 194.214 47.2986 193.708 48.2319 193.348C49.1652 192.988 50.1786 192.808 51.2719 192.808C52.3786 192.808 53.3919 192.988 54.3119 193.348C55.2452 193.708 56.0519 194.214 56.7319 194.868C57.4252 195.521 57.9652 196.288 58.3519 197.168C58.7386 198.034 58.9319 198.994 58.9319 200.048C58.9319 201.088 58.7386 202.054 58.3519 202.948C57.9652 203.828 57.4252 204.594 56.7319 205.248C56.0519 205.888 55.2452 206.388 54.3119 206.748C53.3919 207.108 52.3852 207.288 51.2919 207.288ZM51.2719 204.528C51.8986 204.528 52.4719 204.421 52.9919 204.208C53.5252 203.994 53.9919 203.688 54.3919 203.288C54.7919 202.888 55.0986 202.414 55.3119 201.868C55.5386 201.321 55.6519 200.714 55.6519 200.048C55.6519 199.381 55.5386 198.774 55.3119 198.228C55.0986 197.681 54.7919 197.208 54.3919 196.808C54.0052 196.408 53.5452 196.101 53.0119 195.888C52.4786 195.674 51.8986 195.568 51.2719 195.568C50.6452 195.568 50.0652 195.674 49.5319 195.888C49.0119 196.101 48.5519 196.408 48.1519 196.808C47.7519 197.208 47.4386 197.681 47.2119 198.228C46.9986 198.774 46.8919 199.381 46.8919 200.048C46.8919 200.701 46.9986 201.308 47.2119 201.868C47.4386 202.414 47.7452 202.888 48.1319 203.288C48.5319 203.688 48.9986 203.994 49.5319 204.208C50.0652 204.421 50.6452 204.528 51.2719 204.528ZM64.3669 199.348H71.0869V201.948H64.3669V199.348ZM64.6069 207.048H61.3669V193.048H71.9469V195.648H64.6069V207.048ZM77.1403 199.348H83.8603V201.948H77.1403V199.348ZM77.3803 207.048H74.1403V193.048H84.7203V195.648H77.3803V207.048ZM89.8938 198.688H96.6338V201.208H89.8938V198.688ZM90.1338 204.448H97.7538V207.048H86.9138V193.048H97.4938V195.648H90.1338V204.448ZM103.312 198.688H110.052V201.208H103.312V198.688ZM103.552 204.448H111.172V207.048H100.332V193.048H110.912V195.648H103.552V204.448Z" fill="#FFFCFC"/>
</svg>
